# xmcd
#
# Track frame offsets:
# 150
# 17034
# 35193
# 54034
# 74167
# 97357
# 118147
# 134559
# 156513
# 172685
#
# Disc length: 2480 seconds
#
#
# Revision: 1
# Processed by: cddbd v1.5.1PL2 Copyright (c) Steve Scherf et al.
# Submitted via: FreeRIP 2.944 
#
DISCID=9409ae0a
DTITLE=Rodney Crowell - Country Classics
DYEAR=2003
DGENRE=Country
TTITLE0=Stars on the Water
TTITLE1=I Don't Have to Crawl
TTITLE2=Ashes by Now
TTITLE3=Elvira
TTITLE4='Til I Gain Control
TTITLE5=Shame on The Moon
TTITLE6=Queen of Hearts
TTITLE7=I Ain't Living
TTITLE8=Heartbroke
TTITLE9=Victim or A Fool
EXTD=
EXTT0=
EXTT1=
EXTT2=
EXTT3=
EXTT4=
EXTT5=
EXTT6=
EXTT7=
EXTT8=
EXTT9=
PLAYORDER=
